<?xml version="1.0" encoding="UTF-8" standalone="no"?>
<!-- Generator: Adobe Illustrator 13.0.1, SVG Export Plug-In . SVG Version: 6.00 Build 14948)  -->

<svg
   xmlns:dc="http://purl.org/dc/elements/1.1/"
   xmlns:cc="http://creativecommons.org/ns#"
   xmlns:rdf="http://www.w3.org/1999/02/22-rdf-syntax-ns#"
   xmlns:svg="http://www.w3.org/2000/svg"
   xmlns="http://www.w3.org/2000/svg"
   xmlns:sodipodi="http://sodipodi.sourceforge.net/DTD/sodipodi-0.dtd"
   xmlns:inkscape="http://www.inkscape.org/namespaces/inkscape"
   version="1.1"
   id="Capa_1"
   x="0px"
   y="0px"
   width="985.13702"
   height="442.97589"
   viewBox="0 0 985.137 442.97588"
   xml:space="preserve"
   sodipodi:docname="unique home.svg"
   inkscape:version="0.92.0 r15299"><metadata
     id="metadata33"><rdf:RDF><cc:Work
         rdf:about=""><dc:format>image/svg+xml</dc:format><dc:type
           rdf:resource="http://purl.org/dc/dcmitype/StillImage" /><dc:title></dc:title></cc:Work></rdf:RDF></metadata><defs
     id="defs31" /><sodipodi:namedview
     pagecolor="#ffffff"
     bordercolor="#666666"
     borderopacity="1"
     objecttolerance="10"
     gridtolerance="10"
     guidetolerance="10"
     inkscape:pageopacity="0"
     inkscape:pageshadow="2"
     inkscape:window-width="1920"
     inkscape:window-height="1137"
     id="namedview29"
     showgrid="false"
     fit-margin-top="1"
     fit-margin-right="1"
     fit-margin-left="1"
     fit-margin-bottom="1"
     inkscape:zoom="0.38550069"
     inkscape:cx="130.70145"
     inkscape:cy="221.48789"
     inkscape:window-x="1192"
     inkscape:window-y="712"
     inkscape:window-maximized="1"
     inkscape:current-layer="Capa_1" /><g
     id="g14"
     transform="translate(1,1)"><path
       d="m 40.077,223.727 c -10.168,0 -18.146,-2.844 -23.926,-8.525 C 10.365,209.517 6.229,202.145 3.739,193.067 1.243,183.998 0,174.373 0,164.205 c 0,-6.977 0.098,-12.608 0.297,-16.9 0.196,-4.284 0.645,-8.722 1.346,-13.309 0.699,-4.585 1.744,-10.868 3.141,-18.842 0.794,-3.988 1.593,-8.026 2.393,-12.115 0.797,-4.083 1.894,-8.023 3.293,-11.814 1.592,-4.583 3.334,-7.822 5.232,-9.721 1.893,-1.893 3.539,-2.84 4.936,-2.84 3.786,0 6.627,1.046 8.522,3.142 1.893,2.091 2.844,4.739 2.844,7.924 0,4.389 -0.601,8.478 -1.795,12.263 -1.198,3.789 -2.196,7.379 -2.992,10.769 -1.397,8.972 -2.594,16.103 -3.589,21.383 -0.999,5.287 -1.748,10.073 -2.245,14.358 -0.499,4.29 -0.746,9.524 -0.746,15.702 0,2.992 0.247,6.582 0.746,10.768 0.497,4.188 1.444,8.276 2.844,12.264 1.391,3.991 3.486,7.328 6.279,10.017 2.791,2.691 6.478,4.039 11.069,4.039 4.784,0 9.319,-1.742 13.606,-5.233 4.288,-3.486 7.328,-6.33 9.123,-8.525 13.559,-17.146 25.621,-33.896 36.193,-50.248 10.566,-16.347 21.033,-34.194 31.404,-53.539 1.394,-2.192 2.543,-3.589 3.44,-4.187 0.898,-0.597 2.042,-0.897 3.438,-0.897 4.586,0 7.777,0.799 9.571,2.393 1.795,1.599 2.693,4.29 2.693,8.076 0,2.393 -0.297,5.287 -0.897,8.674 -2.99,14.956 -4.485,29.81 -4.485,44.564 0,9.975 0.895,19.246 2.689,27.817 1.795,8.576 4.684,15.657 8.675,21.237 2.992,3.789 4.487,7.079 4.487,9.869 0,3.393 -0.948,6.085 -2.841,8.076 -1.899,1.997 -4.238,2.992 -7.029,2.992 -7.58,0 -13.564,-5.984 -17.947,-17.948 -1.396,-4.187 -2.945,-9.518 -4.635,-16.001 -1.697,-6.475 -3.242,-13.009 -4.636,-19.591 -1.397,-6.579 -2.294,-12.062 -2.692,-16.45 -2.594,4.189 -4.936,8.329 -7.028,12.415 -2.095,4.089 -4.74,8.424 -7.928,13.009 -2.196,3.191 -4.784,6.832 -7.776,10.917 -2.99,4.088 -6.181,8.329 -9.572,12.712 -6.98,8.576 -14.655,16.103 -23.03,22.581 -8.373,6.479 -17.15,9.721 -26.321,9.721 z"
       id="path2"
       inkscape:connector-curvature="0" /><path
       d="m 211.163,220.732 c -2.99,0 -5.185,-0.695 -6.579,-2.092 -1.397,-1.39 -2.393,-3.388 -2.992,-5.981 -0.999,-3.387 -1.495,-6.978 -1.495,-10.766 v -11.666 c 0,-6.38 0.197,-11.913 0.597,-16.6 0.398,-4.683 0.601,-9.82 0.601,-15.403 0,-1.991 -0.054,-4.137 -0.152,-6.432 -0.101,-2.29 -0.252,-4.733 -0.448,-7.328 -0.798,-9.767 -1.895,-20.04 -3.289,-30.808 -1.397,-10.767 -2.092,-20.534 -2.092,-29.312 V 72.681 c 1.194,-2.791 2.341,-4.487 3.438,-5.085 1.093,-0.601 2.641,-0.897 4.635,-0.897 4.787,0 8.175,1.845 10.172,5.533 1.988,3.691 3.334,7.975 4.035,12.86 0.699,4.888 1.147,9.123 1.347,12.712 0.196,1.396 0.547,4.389 1.048,8.972 0.493,4.59 1.046,9.723 1.644,15.404 0.6,5.684 1.146,11.119 1.646,16.301 0.497,5.189 0.747,9.174 0.747,11.964 3.188,-6.579 6.979,-13.408 11.365,-20.489 4.387,-7.075 8.826,-13.708 13.313,-19.888 4.484,-6.179 8.522,-11.167 12.112,-14.956 5.183,-5.783 11.316,-10.32 18.394,-13.61 7.076,-3.289 14.106,-4.935 21.086,-4.935 8.174,0 15.354,2.296 21.537,6.879 6.179,4.591 11.516,10.573 16.002,17.948 4.483,7.379 8.225,15.303 11.214,23.778 2.992,8.478 5.384,16.703 7.18,24.676 2.588,10.57 4.532,19.844 5.833,27.817 1.292,7.976 2.439,17.048 3.438,27.216 0,4.389 -0.897,7.88 -2.691,10.469 -1.795,2.593 -3.991,3.889 -6.579,3.889 -3.792,0 -6.481,-0.847 -8.077,-2.542 -1.598,-1.693 -2.692,-4.436 -3.29,-8.228 -1.397,-7.574 -2.743,-16.15 -4.038,-25.722 -1.298,-9.571 -3.042,-19.291 -5.232,-29.163 -2.199,-9.872 -5.385,-18.89 -9.572,-27.067 -1.598,-3.786 -3.589,-7.676 -5.981,-11.667 -2.396,-3.985 -5.287,-7.375 -8.674,-10.169 -3.393,-2.79 -7.58,-4.187 -12.563,-4.187 -6.579,0 -13.212,2.891 -19.888,8.674 -6.684,5.785 -13.013,13.262 -18.995,22.432 -5.981,9.173 -11.467,18.992 -16.45,29.46 -4.987,10.469 -9.173,20.39 -12.562,29.76 -1.001,3.194 -2.243,6.73 -3.741,10.62 -1.495,3.887 -3.043,7.527 -4.635,10.917 -1.397,2.793 -2.946,4.889 -4.636,6.279 -1.699,1.401 -3.942,2.096 -6.733,2.096 z"
       id="path4"
       inkscape:connector-curvature="0" /><path
       d="m 413.353,222.229 c -2.795,0 -4.936,-1.794 -6.431,-5.384 -1.497,-3.587 -2.496,-8.171 -2.992,-13.759 -0.499,-5.58 -0.749,-11.366 -0.749,-17.348 0,-2.79 0.048,-5.63 0.151,-8.522 0.098,-2.889 0.148,-5.63 0.148,-8.225 0,-0.797 0.3,-3.44 0.897,-7.928 0.597,-4.487 1.295,-9.72 2.095,-15.702 0.793,-5.981 1.643,-11.913 2.541,-17.796 0.897,-5.881 1.646,-10.517 2.244,-13.91 0.597,-2.589 1.295,-6.027 2.094,-10.317 0.794,-4.285 2.243,-8.175 4.336,-11.667 2.095,-3.486 5.132,-5.232 9.122,-5.232 4.585,0 7.824,0.849 9.721,2.541 1.893,1.696 2.843,4.338 2.843,7.927 0,0.999 -0.054,1.995 -0.151,2.99 -0.102,1.001 -0.253,2.094 -0.449,3.292 -0.999,6.382 -2.243,14.309 -3.738,23.778 -1.495,9.474 -2.793,19.341 -3.887,29.609 -1.099,10.272 -1.449,19.995 -1.049,29.162 0.197,2.2 0.449,4.74 0.75,7.628 0.299,2.895 0.448,5.735 0.448,8.526 0,5.186 -1.099,9.869 -3.29,14.056 -2.197,4.189 -7.08,6.281 -14.654,6.281 z M 428.905,31.105 c -6.582,0 -11.814,-1.542 -15.704,-4.635 -3.887,-3.09 -5.831,-7.129 -5.831,-12.115 0,-4.585 2.191,-8.122 6.579,-10.618 C 418.333,1.248 423.919,0 430.701,0 c 6.775,0 12.062,1.545 15.85,4.636 3.786,3.093 5.685,7.328 5.685,12.712 0,4.386 -2.146,7.776 -6.43,10.168 -4.292,2.393 -9.923,3.589 -16.901,3.589 z"
       id="path6"
       inkscape:connector-curvature="0" /><path
       d="m 596.099,334.994 c -0.599,0 -1.244,0 -1.945,0 -0.7,0 -1.447,-0.107 -2.238,-0.303 -6.585,-1.397 -11.571,-4.185 -14.958,-8.374 -3.394,-4.19 -5.682,-9.075 -6.877,-14.656 -1.2,-5.586 -1.795,-11.167 -1.795,-16.748 0,-9.972 0.746,-21.638 2.244,-34.998 1.492,-13.36 3.59,-27.169 6.276,-41.426 2.692,-14.252 5.832,-27.463 9.423,-39.628 -6.58,9.571 -14.605,17.647 -24.079,24.226 -9.473,6.583 -18.99,11.568 -28.559,14.959 -9.574,3.388 -17.95,5.081 -25.128,5.081 -8.178,0 -15.402,-2.243 -21.683,-6.73 -6.283,-4.483 -11.218,-10.266 -14.808,-17.347 -3.59,-7.076 -5.384,-14.603 -5.384,-22.581 0,-13.758 3.04,-26.868 9.125,-39.332 6.08,-12.46 14.302,-23.526 24.673,-33.201 10.364,-9.669 22.183,-17.294 35.447,-22.88 13.259,-5.582 27.067,-8.374 41.42,-8.374 9.17,0 17.248,2.092 24.23,6.282 6.977,4.187 11.762,9.868 14.357,17.047 0.398,1.195 0.792,2.645 1.195,4.336 0.398,1.697 0.601,3.342 0.601,4.936 0,2.196 -0.449,4.389 -1.348,6.582 -0.896,2.196 -2.444,4.089 -4.638,5.682 3.187,2.594 5.486,5.232 6.882,7.925 1.393,2.692 2.093,6.333 2.093,10.918 0,6.781 -0.948,14.058 -2.845,21.835 -1.896,7.775 -3.937,15.403 -6.13,22.88 -2.199,7.479 -3.987,14.207 -5.385,20.189 -1.794,7.581 -3.842,16.5 -6.13,26.771 -2.294,10.27 -4.291,20.488 -5.984,30.657 -1.694,10.168 -2.541,19.144 -2.541,26.922 0,4.785 0.448,8.824 1.347,12.11 0.896,3.292 2.344,5.535 4.335,6.73 3.388,1.991 6.029,4.733 7.931,8.228 1.891,3.483 2.838,6.922 2.838,10.314 0,3.191 -0.999,5.985 -2.989,8.38 -1.995,2.387 -4.984,3.588 -8.973,3.588 z M 509.657,203.086 c 6.585,0 13.063,-1.69 19.446,-5.084 6.376,-3.388 12.563,-7.776 18.542,-13.161 5.984,-5.382 11.56,-11.066 16.747,-17.048 4.19,-4.585 8.127,-9.019 11.817,-13.31 3.687,-4.285 7.725,-8.92 12.116,-13.91 3.589,-4.383 6.921,-8.823 10.017,-13.31 3.092,-4.487 4.639,-9.019 4.639,-13.609 0,-2.393 -0.404,-4.484 -1.201,-6.279 -2.191,-5.783 -5.529,-10.171 -10.017,-13.161 -4.486,-2.992 -8.329,-4.487 -11.515,-4.487 -10.77,0 -21.589,2.347 -32.451,7.028 -10.871,4.689 -20.894,10.971 -30.063,18.846 -9.17,7.878 -16.551,16.8 -22.132,26.768 -5.587,9.975 -8.374,20.34 -8.374,31.105 0,3.994 0.6,8.279 1.795,12.864 1.195,4.588 3.386,8.522 6.579,11.812 3.186,3.294 7.875,4.936 14.055,4.936 z"
       id="path8"
       inkscape:connector-curvature="0" /><path
       d="m 695.997,223.727 c -10.168,0 -18.146,-2.844 -23.927,-8.525 -5.789,-5.685 -9.923,-13.057 -12.413,-22.135 -2.496,-9.07 -3.74,-18.694 -3.74,-28.863 0,-6.977 0.101,-12.608 0.303,-16.9 0.196,-4.284 0.644,-8.722 1.345,-13.309 0.696,-4.585 1.741,-10.868 3.143,-18.842 0.789,-3.988 1.593,-8.026 2.389,-12.115 0.796,-4.083 1.896,-8.023 3.292,-11.814 1.594,-4.583 3.339,-7.822 5.233,-9.721 1.89,-1.893 3.539,-2.84 4.937,-2.84 3.785,0 6.622,1.046 8.524,3.142 1.891,2.091 2.838,4.739 2.838,7.924 0,4.389 -0.594,8.478 -1.795,12.263 -1.194,3.789 -2.193,7.379 -2.989,10.769 -1.396,8.972 -2.591,16.103 -3.59,21.383 -0.998,5.287 -1.744,10.073 -2.243,14.358 -0.5,4.29 -0.745,9.524 -0.745,15.702 0,2.992 0.245,6.582 0.745,10.768 0.499,4.188 1.447,8.276 2.844,12.264 1.391,3.991 3.482,7.328 6.281,10.017 2.789,2.691 6.479,4.039 11.066,4.039 4.785,0 9.316,-1.742 13.606,-5.233 4.285,-3.486 7.332,-6.33 9.127,-8.525 13.556,-17.146 25.62,-33.896 36.187,-50.248 10.566,-16.347 21.037,-34.194 31.409,-53.539 1.39,-2.192 2.541,-3.589 3.438,-4.187 0.898,-0.597 2.041,-0.897 3.438,-0.897 4.589,0 7.779,0.799 9.573,2.393 1.796,1.599 2.692,4.29 2.692,8.076 0,2.393 -0.303,5.287 -0.896,8.674 -2.994,14.956 -4.486,29.81 -4.486,44.564 0,9.975 0.896,19.246 2.69,27.817 1.796,8.576 4.684,15.657 8.673,21.237 2.989,3.789 4.485,7.079 4.485,9.869 0,3.393 -0.947,6.085 -2.837,8.076 -1.902,1.997 -4.24,2.992 -7.033,2.992 -7.578,0 -13.563,-5.984 -17.942,-17.948 -1.396,-4.187 -2.945,-9.518 -4.64,-16.001 -1.693,-6.475 -3.24,-13.009 -4.633,-19.591 -1.401,-6.579 -2.299,-12.062 -2.691,-16.45 -2.596,4.189 -4.936,8.329 -7.033,12.415 -2.094,4.089 -4.739,8.424 -7.926,13.009 -2.192,3.191 -4.783,6.832 -7.773,10.917 -2.995,4.088 -6.188,8.329 -9.575,12.712 -6.981,8.576 -14.655,16.103 -23.028,22.581 -8.375,6.48 -17.154,9.722 -26.323,9.722 z"
       id="path10"
       inkscape:connector-curvature="0" /><path
       d="m 929.596,231.204 c -15.155,0 -28.863,-2.244 -41.124,-6.731 -12.266,-4.487 -21.986,-11.562 -29.165,-21.235 -7.179,-9.669 -10.77,-22.182 -10.77,-37.538 0,-12.161 2.042,-24.025 6.138,-35.594 4.081,-11.559 9.915,-22.027 17.492,-31.403 7.577,-9.373 16.646,-16.798 27.22,-22.284 10.566,-5.482 22.328,-8.225 35.295,-8.225 8.97,0 17.097,1.696 24.376,5.084 7.273,3.393 13.108,8.177 17.499,14.358 4.381,6.181 6.58,13.562 6.58,22.132 0,9.173 -1.947,17.9 -5.833,26.171 -3.888,8.278 -9.126,15.606 -15.705,21.983 -6.578,6.385 -14.011,11.419 -22.284,15.104 -8.273,3.693 -16.899,5.536 -25.872,5.536 -7.774,0 -15.055,-0.645 -21.831,-1.946 -6.784,-1.293 -13.063,-3.338 -18.844,-6.131 0,7.581 1.796,14.011 5.384,19.292 3.59,5.287 8.173,9.571 13.758,12.861 5.582,3.29 11.414,5.684 17.493,7.179 6.087,1.495 11.718,2.244 16.901,2.244 4.189,0 8.378,-0.247 12.563,-0.749 4.19,-0.494 8.772,-0.746 13.759,-0.746 7.374,0 11.064,3.192 11.064,9.571 0,4.986 -3.488,8.173 -10.464,9.568 -3.793,0.796 -7.68,1.246 -11.667,1.346 -3.988,0.102 -7.977,0.153 -11.963,0.153 z m -16.154,-76.571 c 6.977,0 14.257,-1.391 21.835,-4.187 7.577,-2.791 14.01,-7.179 19.293,-13.161 5.283,-5.982 7.925,-13.557 7.925,-22.733 0,-8.172 -2.54,-14.804 -7.627,-19.889 -5.081,-5.084 -11.812,-7.626 -20.187,-7.626 -7.582,0 -15.008,1.746 -22.283,5.235 -7.28,3.492 -13.908,8.177 -19.895,14.056 -5.978,5.885 -10.763,12.516 -14.353,19.891 -3.588,7.378 -5.384,14.956 -5.384,22.732 4.582,2.393 10.364,3.941 17.347,4.636 6.98,0.701 14.752,1.046 23.329,1.046 z"
       id="path12"
       inkscape:connector-curvature="0" /></g><g
     id="g26"
     transform="translate(1,1)"><path
       d="m 357.602,366.677 v 73.06 h -5.323 v -34.753 h -48.847 v 34.753 h -5.323 v -73.06 h 5.323 v 33.607 h 48.847 v -33.607 z"
       id="path16"
       inkscape:connector-curvature="0"
       style="stroke:#000000;stroke-width:1.43579996" /><path
       d="m 397.258,435.407 c -5.774,-3.236 -10.314,-7.674 -13.618,-13.31 -3.306,-5.638 -4.958,-11.93 -4.958,-18.89 0,-6.956 1.652,-13.254 4.958,-18.891 3.304,-5.637 7.844,-10.073 13.618,-13.305 5.775,-3.236 12.247,-4.857 19.416,-4.857 7.165,0 13.634,1.604 19.412,4.801 5.774,3.203 10.314,7.623 13.618,13.26 3.306,5.632 4.961,11.964 4.961,18.992 0,7.027 -1.656,13.359 -4.961,18.996 -3.304,5.637 -7.844,10.057 -13.618,13.254 -5.777,3.201 -12.247,4.801 -19.412,4.801 -7.169,0 -13.641,-1.616 -19.416,-4.851 z m 36.008,-4.23 c 4.938,-2.782 8.837,-6.624 11.689,-11.531 2.852,-4.907 4.279,-10.388 4.279,-16.438 0,-6.053 -1.427,-11.533 -4.279,-16.44 -2.852,-4.902 -6.751,-8.743 -11.689,-11.531 -4.941,-2.781 -10.471,-4.173 -16.593,-4.173 -6.125,0 -11.675,1.392 -16.647,4.173 -4.978,2.788 -8.89,6.629 -11.742,11.531 -2.854,4.907 -4.279,10.388 -4.279,16.44 0,6.051 1.425,11.531 4.279,16.438 2.852,4.907 6.764,8.749 11.742,11.531 4.973,2.782 10.522,4.174 16.647,4.174 6.122,0 11.652,-1.392 16.593,-4.174 z"
       id="path18"
       inkscape:connector-curvature="0"
       style="stroke:#000000;stroke-width:1.43579996" /><path
       d="m 544.836,439.737 -0.107,-62.516 -30.578,52.807 h -2.607 l -30.58,-52.599 v 62.308 h -5.221 v -73.06 h 4.487 l 32.67,56.463 32.665,-56.463 h 4.387 l 0.1,73.06 z"
       id="path20"
       inkscape:connector-curvature="0"
       style="stroke:#000000;stroke-width:1.43579996" /><path
       d="m 628.54,434.936 v 4.801 h -50.411 v -73.06 h 48.847 v 4.802 h -43.523 v 28.806 h 38.929 v 4.699 h -38.929 v 29.952 z"
       id="path22"
       inkscape:connector-curvature="0"
       style="stroke:#000000;stroke-width:1.43579996" /><path
       d="m 654.476,437.494 c -4.836,-1.845 -8.61,-4.229 -11.324,-7.152 l 2.4,-3.965 c 2.574,2.715 6.035,4.925 10.389,6.63 4.346,1.704 8.916,2.558 13.717,2.558 6.961,0 12.217,-1.324 15.763,-3.966 3.549,-2.647 5.321,-6.091 5.321,-10.337 0,-3.271 -0.938,-5.878 -2.814,-7.824 -1.88,-1.946 -4.214,-3.444 -6.994,-4.486 -2.783,-1.043 -6.542,-2.127 -11.275,-3.236 -5.354,-1.324 -9.651,-2.609 -12.889,-3.865 -3.229,-1.251 -5.984,-3.181 -8.244,-5.788 -2.261,-2.613 -3.388,-6.107 -3.388,-10.493 0,-3.546 0.938,-6.799 2.815,-9.755 1.879,-2.961 4.75,-5.306 8.609,-7.044 3.864,-1.739 8.683,-2.614 14.454,-2.614 4.037,0 8.003,0.596 11.9,1.778 3.894,1.184 7.271,2.781 10.125,4.801 l -1.985,4.28 c -2.922,-2.02 -6.143,-3.551 -9.652,-4.594 -3.518,-1.044 -6.979,-1.565 -10.388,-1.565 -6.747,0 -11.863,1.358 -15.34,4.067 -3.479,2.714 -5.217,6.23 -5.217,10.545 0,3.27 0.937,5.877 2.816,7.823 1.879,1.952 4.207,3.444 6.995,4.492 2.78,1.044 6.572,2.153 11.373,3.338 5.356,1.324 9.636,2.608 12.838,3.863 3.197,1.251 5.929,3.147 8.194,5.688 2.261,2.539 3.388,5.968 3.388,10.28 0,3.545 -0.954,6.78 -2.865,9.704 -1.917,2.921 -4.857,5.255 -8.823,6.994 -3.966,1.738 -8.833,2.607 -14.609,2.607 -5.357,0 -10.455,-0.92 -15.29,-2.764 z"
       id="path24"
       inkscape:connector-curvature="0"
       style="stroke:#000000;stroke-width:1.43579996" /></g></svg>